<svg id="visual" viewBox="0 0 900 600" width="900" height="600" xmlns="http://www.w3.org/2000/svg" xmlns:xlink="http://www.w3.org/1999/xlink" version="1.1"><path d="M0 43L13.7 50C27.3 57 54.7 71 82 75C109.3 79 136.7 73 163.8 68C191 63 218 59 245.2 63C272.3 67 299.7 79 327 80C354.3 81 381.7 71 409 66C436.3 61 463.7 61 491 65C518.3 69 545.7 77 573 82C600.3 87 627.7 89 654.8 90C682 91 709 91 736.2 89C763.3 87 790.7 83 818 85C845.3 87 872.7 95 886.3 99L900 103L900 0L886.3 0C872.7 0 845.3 0 818 0C790.7 0 763.3 0 736.2 0C709 0 682 0 654.8 0C627.7 0 600.3 0 573 0C545.7 0 518.3 0 491 0C463.7 0 436.3 0 409 0C381.7 0 354.3 0 327 0C299.7 0 272.3 0 245.2 0C218 0 191 0 163.8 0C136.7 0 109.3 0 82 0C54.7 0 27.3 0 13.7 0L0 0Z" fill="#b06bcd"></path><path d="M0 193L13.7 197C27.3 201 54.7 209 82 220C109.3 231 136.7 245 163.8 259C191 273 218 287 245.2 276C272.3 265 299.7 229 327 224C354.3 219 381.7 245 409 245C436.3 245 463.7 219 491 202C518.3 185 545.7 177 573 202C600.3 227 627.7 285 654.8 295C682 305 709 267 736.2 247C763.3 227 790.7 225 818 229C845.3 233 872.7 243 886.3 248L900 253L900 101L886.3 97C872.7 93 845.3 85 818 83C790.7 81 763.3 85 736.2 87C709 89 682 89 654.8 88C627.7 87 600.3 85 573 80C545.7 75 518.3 67 491 63C463.7 59 436.3 59 409 64C381.7 69 354.3 79 327 78C299.7 77 272.3 65 245.2 61C218 57 191 61 163.8 66C136.7 71 109.3 77 82 73C54.7 69 27.3 55 13.7 48L0 41Z" fill="#a04ec3"></path><path d="M0 361L13.7 372C27.3 383 54.7 405 82 417C109.3 429 136.7 431 163.8 426C191 421 218 409 245.2 396C272.3 383 299.7 369 327 373C354.3 377 381.7 399 409 413C436.3 427 463.7 433 491 431C518.3 429 545.7 419 573 425C600.3 431 627.7 453 654.8 456C682 459 709 443 736.2 440C763.3 437 790.7 447 818 444C845.3 441 872.7 425 886.3 417L900 409L900 251L886.3 246C872.7 241 845.3 231 818 227C790.7 223 763.3 225 736.2 245C709 265 682 303 654.8 293C627.7 283 600.3 225 573 200C545.7 175 518.3 183 491 200C463.7 217 436.3 243 409 243C381.7 243 354.3 217 327 222C299.7 227 272.3 263 245.2 274C218 285 191 271 163.8 257C136.7 243 109.3 229 82 218C54.7 207 27.3 199 13.7 195L0 191Z" fill="#8f2eb8"></path><path d="M0 541L13.7 544C27.3 547 54.7 553 82 550C109.3 547 136.7 535 163.8 527C191 519 218 515 245.2 511C272.3 507 299.7 503 327 506C354.3 509 381.7 519 409 526C436.3 533 463.7 537 491 537C518.3 537 545.7 533 573 536C600.3 539 627.7 549 654.8 545C682 541 709 523 736.2 522C763.3 521 790.7 537 818 538C845.3 539 872.7 525 886.3 518L900 511L900 407L886.3 415C872.7 423 845.3 439 818 442C790.7 445 763.3 435 736.2 438C709 441 682 457 654.8 454C627.7 451 600.3 429 573 423C545.7 417 518.3 427 491 429C463.7 431 436.3 425 409 411C381.7 397 354.3 375 327 371C299.7 367 272.3 381 245.2 394C218 407 191 419 163.8 424C136.7 429 109.3 427 82 415C54.7 403 27.3 381 13.7 370L0 359Z" fill="#7c289f"></path><path d="M0 601L13.7 601C27.3 601 54.7 601 82 601C109.3 601 136.7 601 163.8 601C191 601 218 601 245.2 601C272.3 601 299.7 601 327 601C354.3 601 381.7 601 409 601C436.3 601 463.7 601 491 601C518.3 601 545.7 601 573 601C600.3 601 627.7 601 654.8 601C682 601 709 601 736.2 601C763.3 601 790.7 601 818 601C845.3 601 872.7 601 886.3 601L900 601L900 509L886.3 516C872.7 523 845.3 537 818 536C790.7 535 763.3 519 736.2 520C709 521 682 539 654.8 543C627.7 547 600.3 537 573 534C545.7 531 518.3 535 491 535C463.7 535 436.3 531 409 524C381.7 517 354.3 507 327 504C299.7 501 272.3 505 245.2 509C218 513 191 517 163.8 525C136.7 533 109.3 545 82 548C54.7 551 27.3 545 13.7 542L0 539Z" fill="#692287"></path></svg>